{
  "accessors": [
    {
      "bufferView": 2,
      "componentType": 5126,
      "count": 68,
      "max": [
        0.05574191361665726,
        0.004428221844136715,
        0.004428221844136715
      ],
      "min": [
        -0.057358913123607635,
        -0.004428221844136715,
        -0.004428221844136715
      ],
      "type": "VEC3"
    },
    {
      "bufferView": 2,
      "byteOffset": 816,
      "componentType": 5126,
      "count": 68,
      "max": [
        0.00667273486033082,
        1.0,
        1.0
      ],
      "min": [
        -7.222401787743138e-09,
        -1.0,
        -1.0
      ],
      "type": "VEC3"
    },
    {
      "bufferView": 3,
      "componentType": 5126,
      "count": 68,
      "max": [
        0.02123187854886055,
        1.0,
        1.0,
        1.0
      ],
      "min": [
        -0.02123579941689968,
        -1.0,
        -1.0,
        1.0
      ],
      "type": "VEC4"
    },
    {
      "bufferView": 1,
      "componentType": 5126,
      "count": 68,
      "max": [
        0.6159036755561829,
        0.8754042387008667
      ],
      "min": [
        0.16765576601028442,
        0.007812513038516045
      ],
      "type": "VEC2"
    },
    {
      "bufferView": 0,
      "componentType": 5125,
      "count": 192,
      "type": "SCALAR"
    },
    {
      "bufferView": 2,
      "byteOffset": 1632,
      "componentType": 5126,
      "count": 53,
      "max": [
        0.0720081627368927,
        0.0007045416277833283,
        0.0007045587990432978
      ],
      "min": [
        0.06919798254966736,
        -0.0007045450620353222,
        -0.00070452835643664
      ],
      "type": "VEC3"
    },
    {
      "bufferView": 2,
      "byteOffset": 2268,
      "componentType": 5126,
      "count": 53,
      "max": [
        1.0,
        0.9994985461235046,
        0.9994984865188599
      ],
      "min": [
        0.031667470932006836,
        -0.9994985461235046,
        -0.9994985461235046
      ],
      "type": "VEC3"
    },
    {
      "bufferView": 3,
      "byteOffset": 1088,
      "componentType": 5126,
      "count": 53,
      "max": [
        0.990260124206543,
        0.9990755915641785,
        0.9987136125564575,
        1.0
      ],
      "min": [
        -0.8061752915382385,
        -1.0,
        -0.9997754693031311,
        -1.0
      ],
      "type": "VEC4"
    },
    {
      "bufferView": 1,
      "byteOffset": 544,
      "componentType": 5126,
      "count": 53,
      "max": [
        0.9873256683349609,
        0.09224462509155273
      ],
      "min": [
        0.8802882432937622,
        0.007809758186340332
      ],
      "type": "VEC2"
    },
    {
      "bufferView": 0,
      "byteOffset": 768,
      "componentType": 5125,
      "count": 180,
      "type": "SCALAR"
    },
    {
      "bufferView": 2,
      "byteOffset": 2904,
      "componentType": 5126,
      "count": 26,
      "max": [
        0.060250528156757355,
        0.0013996335910633206,
        0.0013996352208778262
      ],
      "min": [
        -0.058471012860536575,
        -0.0013996375491842628,
        -0.0013996362686157227
      ],
      "type": "VEC3"
    },
    {
      "bufferView": 2,
      "byteOffset": 3216,
      "componentType": 5126,
      "count": 26,
      "max": [
        1.3710023116786374e-09,
        1.0,
        1.0
      ],
      "min": [
        -1.368345436958407e-09,
        -1.0,
        -1.0
      ],
      "type": "VEC3"
    },
    {
      "bufferView": 3,
      "byteOffset": 1936,
      "componentType": 5126,
      "count": 26,
      "max": [
        1.2746553693432361e-05,
        1.0,
        1.0,
        1.0
      ],
      "min": [
        -1.5511943274759687e-05,
        -1.0,
        -1.0,
        1.0
      ],
      "type": "VEC4"
    },
    {
      "bufferView": 1,
      "byteOffset": 968,
      "componentType": 5126,
      "count": 26,
      "max": [
        0.15203046798706055,
        0.9921874403953552
      ],
      "min": [
        0.007813870906829834,
        0.007812527939677238
      ],
      "type": "VEC2"
    },
    {
      "bufferView": 0,
      "byteOffset": 1488,
      "componentType": 5125,
      "count": 72,
      "type": "SCALAR"
    },
    {
      "bufferView": 2,
      "byteOffset": 3528,
      "componentType": 5126,
      "count": 126,
      "max": [
        0.06926371157169342,
        0.004340105690062046,
        0.004340106621384621
      ],
      "min": [
        0.055736299604177475,
        -0.004340107552707195,
        -0.004340107087045908
      ],
      "type": "VEC3"
    },
    {
      "bufferView": 2,
      "byteOffset": 5040,
      "componentType": 5126,
      "count": 126,
      "max": [
        1.0,
        0.9806150794029236,
        0.9806151390075684
      ],
      "min": [
        -1.0,
        -0.9806152582168579,
        -0.9806151986122131
      ],
      "type": "VEC3"
    },
    {
      "bufferView": 3,
      "byteOffset": 2352,
      "componentType": 5126,
      "count": 126,
      "max": [
        0.9604514241218567,
        0.9922559261322021,
        0.953102171421051,
        1.0
      ],
      "min": [
        -0.935876190662384,
        -1.0,
        -0.9807895421981812,
        1.0
      ],
      "type": "VEC4"
    },
    {
      "bufferView": 1,
      "byteOffset": 1176,
      "componentType": 5126,
      "count": 126,
      "max": [
        0.9866642951965332,
        0.9241757392883301
      ],
      "min": [
        0.6044068932533264,
        0.06490856409072876
      ],
      "type": "VEC2"
    },
    {
      "bufferView": 0,
      "byteOffset": 1776,
      "componentType": 5125,
      "count": 348,
      "type": "SCALAR"
    },
    {
      "bufferView": 2,
      "byteOffset": 6552,
      "componentType": 5126,
      "count": 368,
      "max": [
        0.049750007688999176,
        0.004789833445101976,
        0.004789833445101976
      ],
      "min": [
        -0.07138960808515549,
        -0.004789832979440689,
        -0.004789832979440689
      ],
      "type": "VEC3"
    },
    {
      "bufferView": 2,
      "byteOffset": 10968,
      "componentType": 5126,
      "count": 368,
      "max": [
        1.0,
        0.9997440576553345,
        0.9997440576553345
      ],
      "min": [
        -1.0,
        -0.9997440576553345,
        -0.9997440576553345
      ],
      "type": "VEC3"
    },
    {
      "bufferView": 3,
      "byteOffset": 4368,
      "componentType": 5126,
      "count": 368,
      "max": [
        0.7030771374702454,
        1.0,
        0.9993519186973572,
        1.0
      ],
      "min": [
        -0.9984143972396851,
        -0.9974086880683899,
        -0.999351978302002,
        1.0
      ],
      "type": "VEC4"
    },
    {
      "bufferView": 1,
      "byteOffset": 2184,
      "componentType": 5126,
      "count": 368,
      "max": [
        0.9913133978843689,
        0.8306375741958618
      ],
      "min": [
        0.168521448969841,
        0.007817119359970093
      ],
      "type": "VEC2"
    },
    {
      "bufferView": 0,
      "byteOffset": 3168,
      "componentType": 5125,
      "count": 1506,
      "type": "SCALAR"
    }
  ],
  "asset": {
    "extras": {
      "author": "Artieee (https://sketchfab.com/Artieee)",
      "license": "CC-BY-4.0 (http://creativecommons.org/licenses/by/4.0/)",
      "source": "https://sketchfab.com/3d-models/the-pen-0501227aa9d64cca9b5df390a489ab38",
      "title": "The Pen"
    },
    "generator": "Sketchfab-13.42.0",
    "version": "2.0"
  },
  "bufferViews": [
    {
      "buffer": 0,
      "byteLength": 9192,
      "name": "floatBufferViews",
      "target": 34963
    },
    {
      "buffer": 0,
      "byteLength": 5128,
      "byteOffset": 9192,
      "byteStride": 8,
      "name": "floatBufferViews",
      "target": 34962
    },
    {
      "buffer": 0,
      "byteLength": 15384,
      "byteOffset": 14320,
      "byteStride": 12,
      "name": "floatBufferViews",
      "target": 34962
    },
    {
      "buffer": 0,
      "byteLength": 10256,
      "byteOffset": 29704,
      "byteStride": 16,
      "name": "floatBufferViews",
      "target": 34962
    }
  ],
  "buffers": [
    {
      "byteLength": 39960,
      "uri": "scene.bin"
    }
  ],
  "images": [
    {
      "uri": "textures/Ruchka_baseColor.png"
    },
    {
      "uri": "textures/Ruchka_metallicRoughness.png"
    },
    {
      "uri": "textures/Ruchka_normal.png"
    }
  ],
  "materials": [
    {
      "alphaMode": "BLEND",
      "doubleSided": true,
      "name": "Ruchka",
      "normalTexture": {
        "index": 2
      },
      "occlusionTexture": {
        "index": 1
      },
      "pbrMetallicRoughness": {
        "baseColorTexture": {
          "index": 0
        },
        "metallicRoughnessTexture": {
          "index": 1
        }
      }
    }
  ],
  "meshes": [
    {
      "name": "Corpus_Low_Ruchka_0",
      "primitives": [
        {
          "attributes": {
            "NORMAL": 1,
            "POSITION": 0,
            "TANGENT": 2,
            "TEXCOORD_0": 3
          },
          "indices": 4,
          "material": 0,
          "mode": 4
        }
      ]
    },
    {
      "name": "Leaf_Low_Ruchka_0",
      "primitives": [
        {
          "attributes": {
            "NORMAL": 6,
            "POSITION": 5,
            "TANGENT": 7,
            "TEXCOORD_0": 8
          },
          "indices": 9,
          "material": 0,
          "mode": 4
        }
      ]
    },
    {
      "name": "Pastic_Low_Ruchka_0",
      "primitives": [
        {
          "attributes": {
            "NORMAL": 11,
            "POSITION": 10,
            "TANGENT": 12,
            "TEXCOORD_0": 13
          },
          "indices": 14,
          "material": 0,
          "mode": 4
        }
      ]
    },
    {
      "name": "Plastic_Low_Ruchka_0",
      "primitives": [
        {
          "attributes": {
            "NORMAL": 16,
            "POSITION": 15,
            "TANGENT": 17,
            "TEXCOORD_0": 18
          },
          "indices": 19,
          "material": 0,
          "mode": 4
        }
      ]
    },
    {
      "name": "Rezin_Low_Ruchka_0",
      "primitives": [
        {
          "attributes": {
            "NORMAL": 21,
            "POSITION": 20,
            "TANGENT": 22,
            "TEXCOORD_0": 23
          },
          "indices": 24,
          "material": 0,
          "mode": 4
        }
      ]
    }
  ],
  "nodes": [
    {
      "children": [
        1
      ],
      "matrix": [
        1.0,
        0.0,
        0.0,
        0.0,
        0.0,
        2.220446049250313e-16,
        -1.0,
        0.0,
        0.0,
        1.0,
        2.220446049250313e-16,
        0.0,
        0.0,
        0.0,
        0.0,
        1.0
      ],
      "name": "Sketchfab_model"
    },
    {
      "children": [
        2
      ],
      "matrix": [
        0.009999999776482582,
        0.0,
        0.0,
        0.0,
        0.0,
        0.0,
        0.009999999776482582,
        0.0,
        0.0,
        -0.009999999776482582,
        0.0,
        0.0,
        0.0,
        0.0,
        0.0,
        1.0
      ],
      "name": "b9cd139e892b430da253a0f51d107cc9.fbx"
    },
    {
      "children": [
        3,
        5,
        7,
        9,
        11
      ],
      "name": "RootNode"
    },
    {
      "children": [
        4
      ],
      "matrix": [
        100.0,
        0.0,
        0.0,
        0.0,
        0.0,
        -1.629206793918314e-05,
        -99.99999999999868,
        0.0,
        0.0,
        99.99999999999868,
        -1.629206793918314e-05,
        0.0,
        0.0,
        0.0,
        0.0,
        1.0
      ],
      "name": "Corpus_Low"
    },
    {
      "mesh": 0,
      "name": "Corpus_Low_Ruchka_0"
    },
    {
      "children": [
        6
      ],
      "matrix": [
        100.0,
        0.0,
        0.0,
        0.0,
        0.0,
        -1.629206793918314e-05,
        -99.99999999999868,
        0.0,
        0.0,
        99.99999999999868,
        -1.629206793918314e-05,
        0.0,
        0.0,
        0.0,
        0.0,
        1.0
      ],
      "name": "Leaf_Low"
    },
    {
      "mesh": 1,
      "name": "Leaf_Low_Ruchka_0"
    },
    {
      "children": [
        8
      ],
      "matrix": [
        100.0,
        0.0,
        0.0,
        0.0,
        0.0,
        -1.629206793918314e-05,
        -99.99999999999868,
        0.0,
        0.0,
        99.99999999999868,
        -1.629206793918314e-05,
        0.0,
        0.0,
        0.0,
        0.0,
        1.0
      ],
      "name": "Pastic_Low"
    },
    {
      "mesh": 2,
      "name": "Pastic_Low_Ruchka_0"
    },
    {
      "children": [
        10
      ],
      "matrix": [
        100.0,
        0.0,
        0.0,
        0.0,
        0.0,
        -1.629206793918314e-05,
        -99.99999999999868,
        0.0,
        0.0,
        99.99999999999868,
        -1.629206793918314e-05,
        0.0,
        0.0,
        0.0,
        0.0,
        1.0
      ],
      "name": "Plastic_Low"
    },
    {
      "mesh": 3,
      "name": "Plastic_Low_Ruchka_0"
    },
    {
      "children": [
        12
      ],
      "matrix": [
        100.0,
        0.0,
        0.0,
        0.0,
        0.0,
        -1.629206793918314e-05,
        -99.99999999999868,
        0.0,
        0.0,
        99.99999999999868,
        -1.629206793918314e-05,
        0.0,
        0.0,
        0.0,
        0.0,
        1.0
      ],
      "name": "Rezin_Low"
    },
    {
      "mesh": 4,
      "name": "Rezin_Low_Ruchka_0"
    }
  ],
  "samplers": [
    {
      "magFilter": 9729,
      "minFilter": 9987,
      "wrapS": 10497,
      "wrapT": 10497
    }
  ],
  "scene": 0,
  "scenes": [
    {
      "name": "Sketchfab_Scene",
      "nodes": [
        0
      ]
    }
  ],
  "textures": [
    {
      "sampler": 0,
      "source": 0
    },
    {
      "sampler": 0,
      "source": 1
    },
    {
      "sampler": 0,
      "source": 2
    }
  ]
}
